<svg width="44" height="70" viewBox="0 0 44 70" fill="none" xmlns="http://www.w3.org/2000/svg">
<path d="M4.54501 13.6038C4.37305 13.639 4.21883 13.7335 4.1092 13.8709C3.99957 14.0083 3.94147 14.1799 3.94501 14.3558V20.8682C3.94147 21.0441 3.99957 21.2157 4.1092 21.3531C4.21883 21.4905 4.37305 21.585 4.54501 21.6202L7.27501 22.1842C7.52574 22.9737 7.84184 23.7409 8.22001 24.4778L6.68251 26.809C6.58425 26.9537 6.53947 27.1284 6.5559 27.3027C6.57234 27.4771 6.64894 27.6402 6.77251 27.764L11.3625 32.3738C11.4845 32.4969 11.6453 32.574 11.8176 32.5918C11.9899 32.6096 12.1629 32.5671 12.3075 32.4715L14.6325 30.9675C15.3678 31.3478 16.1328 31.6672 16.92 31.9226L17.4825 34.6598C17.5176 34.8322 17.6118 34.9869 17.7489 35.0968C17.8859 35.2067 18.057 35.265 18.2325 35.2614H24.7275C24.903 35.265 25.0741 35.2067 25.2111 35.0968C25.3482 34.9869 25.4424 34.8322 25.4775 34.6598L25.98 31.8624C26.7663 31.6077 27.5312 31.2909 28.2675 30.9149L30.6 32.4189C30.743 32.5135 30.9141 32.5561 31.0846 32.5397C31.2552 32.5233 31.415 32.4488 31.5375 32.3286L36.165 27.764C36.2879 27.6416 36.3647 27.4804 36.3825 27.3077C36.4002 27.135 36.3578 26.9614 36.2625 26.8165L34.7625 24.4853C35.1431 23.7461 35.4617 22.9764 35.715 22.1842L38.445 21.6277C38.617 21.5925 38.7712 21.498 38.8808 21.3606C38.9904 21.2232 39.0485 21.0516 39.045 20.8757V14.3709C39.0485 14.1949 38.9904 14.0233 38.8808 13.8859C38.7712 13.7485 38.617 13.654 38.445 13.6189L35.73 13.0699C35.478 12.2784 35.1619 11.5088 34.785 10.7688L36.285 8.43759C36.3884 8.29 36.4354 8.11007 36.4175 7.93062C36.3996 7.75117 36.318 7.58414 36.1875 7.45999L31.5975 2.88783C31.4755 2.76466 31.3147 2.68762 31.1424 2.6698C30.9702 2.65198 30.7971 2.69448 30.6525 2.79007L28.3275 4.29407C27.5922 3.91379 26.8272 3.59438 26.04 3.33903L25.4775 0.601753C25.4424 0.429338 25.3482 0.27471 25.2111 0.164787C25.0741 0.0548633 24.903 -0.0033949 24.7275 0.000152986H18.2475C18.072 -0.0033949 17.9009 0.0548633 17.7639 0.164787C17.6268 0.27471 17.5326 0.429338 17.4975 0.601753L16.98 3.36159C16.1913 3.60974 15.4259 3.92679 14.6925 4.30911L12.33 2.76751C12.1861 2.67387 12.0146 2.63249 11.844 2.65028C11.6734 2.66807 11.5141 2.74395 11.3925 2.86527L6.79501 7.45999C6.67401 7.58188 6.59833 7.74166 6.58059 7.91272C6.56284 8.08377 6.60411 8.25575 6.69751 8.39999L8.19751 10.7387C7.81693 11.4753 7.49832 12.2425 7.24501 13.0323L4.54501 13.6038ZM8.58751 13.8971C8.86888 12.913 9.26142 11.9644 9.75751 11.0696C9.82333 10.9553 9.85799 10.8256 9.85799 10.6936C9.85799 10.5616 9.82333 10.4319 9.75751 10.3176L8.31751 8.12175L12.0675 4.36175L14.2575 5.81311C14.3715 5.87912 14.5009 5.91386 14.6325 5.91386C14.7642 5.91386 14.8935 5.87912 15.0075 5.81311C15.8975 5.31812 16.8412 4.92703 17.82 4.64751C17.9525 4.61038 18.0723 4.53743 18.1662 4.43663C18.2601 4.33582 18.3246 4.21106 18.3525 4.07599L18.885 1.49663H24.135L24.66 4.06847C24.6873 4.20263 24.7507 4.32677 24.8432 4.42749C24.9357 4.52821 25.0539 4.60168 25.185 4.63999C26.1629 4.92542 27.1062 5.31887 27.9975 5.81311C28.1115 5.87912 28.2408 5.91386 28.3725 5.91386C28.5042 5.91386 28.6335 5.87912 28.7475 5.81311L30.9375 4.36927L34.6875 8.12927L33.2475 10.3176C33.1817 10.4319 33.147 10.5616 33.147 10.6936C33.147 10.8256 33.1817 10.9553 33.2475 11.0696C33.7399 11.9652 34.1299 12.9137 34.41 13.8971C34.447 14.03 34.5198 14.15 34.6203 14.2442C34.7209 14.3384 34.8453 14.403 34.98 14.431L37.5525 14.9574V20.2214L34.98 20.7478C34.8453 20.7758 34.7209 20.8405 34.6203 20.9346C34.5198 21.0288 34.447 21.1489 34.41 21.2818C34.1286 22.2634 33.736 23.2096 33.24 24.1018C33.1742 24.2161 33.1395 24.3457 33.1395 24.4778C33.1395 24.6098 33.1742 24.7394 33.24 24.8538L34.68 27.0496L30.93 30.8096L28.755 29.4109C28.641 29.3449 28.5117 29.3101 28.38 29.3101C28.2484 29.3101 28.119 29.3449 28.005 29.4109C27.115 29.9059 26.1713 30.297 25.1925 30.5765C25.06 30.6136 24.9402 30.6866 24.8463 30.7874C24.7524 30.8882 24.6879 31.0129 24.66 31.148L24.1275 33.7198H18.8775L18.3525 31.1405C18.3252 31.0063 18.2618 30.8822 18.1693 30.7815C18.0768 30.6807 17.9586 30.6073 17.8275 30.569C16.8484 30.2868 15.9048 29.8932 15.015 29.3958C14.901 29.3298 14.7717 29.2951 14.64 29.2951C14.5084 29.2951 14.379 29.3298 14.265 29.3958L12.075 30.8397L8.32501 27.0797L9.77251 24.8838C9.83833 24.7695 9.87299 24.6398 9.87299 24.5078C9.87299 24.3758 9.83833 24.2461 9.77251 24.1318C9.26661 23.2364 8.86642 22.285 8.58001 21.2968C8.5418 21.1653 8.46852 21.0468 8.36807 20.9541C8.26762 20.8613 8.14381 20.7978 8.01001 20.7704L5.43751 20.244V14.98L8.01001 14.4536C8.14888 14.425 8.27684 14.3576 8.37905 14.2591C8.48126 14.1606 8.55354 14.0351 8.58751 13.8971V13.8971Z" fill="white"/>
<path d="M17.73 26.26C19.7151 27.1261 21.9383 27.2755 24.0209 26.6827C26.1035 26.09 27.9167 24.7917 29.1519 23.0089C30.387 21.2262 30.9677 19.0693 30.7949 16.9056C30.6221 14.7419 29.7067 12.7051 28.2044 11.1421C26.7021 9.57908 24.706 8.58656 22.5558 8.33353C20.4057 8.0805 18.2346 8.5826 16.4122 9.75434C14.5898 10.9261 13.2289 12.695 12.5611 14.7598C11.8934 16.8246 11.9601 19.0577 12.75 21.0787C13.1986 22.2288 13.8695 23.2786 14.7242 24.1678C15.5788 25.057 16.6004 25.768 17.73 26.26V26.26ZM14.265 14.4536C14.677 13.5015 15.2728 12.6406 16.0181 11.9204C16.7633 11.2002 17.6434 10.6351 18.6075 10.2575C19.5236 9.90103 20.4974 9.71747 21.48 9.71602C23.1778 9.7137 24.8309 10.261 26.1934 11.2766C27.5559 12.2921 28.555 13.7216 29.042 15.3523C29.529 16.9831 29.4779 18.7279 28.8963 20.3271C28.3147 21.9264 27.2336 23.2946 25.814 24.2282C24.3945 25.1619 22.7122 25.611 21.0175 25.5088C19.3228 25.4066 17.7063 24.7585 16.4086 23.661C15.1108 22.5635 14.2012 21.0752 13.815 19.4176C13.4287 17.7599 13.5866 16.0216 14.265 14.4611V14.4536Z" fill="white"/>
<path d="M0.427519 65.0331C7.1149 67.6856 14.236 69.0677 21.4275 69.1089L21.48 69.1239H21.5625C28.754 69.0827 35.8751 67.7006 42.5625 65.0481C42.7035 64.9936 42.8247 64.8976 42.9104 64.7728C42.996 64.648 43.0421 64.5002 43.0425 64.3487C43.0425 64.1231 42.8475 41.503 26.1075 38.0288L25.7625 37.9611C23.6437 37.5674 21.4808 37.4687 19.335 37.6678C18.6379 37.7292 17.9444 37.8271 17.2575 37.9611V37.9611L16.95 38.0288C0.195017 41.518 1.92266e-05 64.1382 1.92266e-05 64.3487C-0.00100194 64.4918 0.0386733 64.6321 0.114393 64.7533C0.190112 64.8745 0.298736 64.9716 0.427519 65.0331ZM21.48 67.2891L15.1275 60.5211L19.0125 44.684H23.9475L27.8325 60.476L21.48 67.2891ZM27.0975 41.7211C27.1709 41.6221 27.2188 41.5065 27.2371 41.3845C27.2554 41.2626 27.2436 41.138 27.2025 41.0217L26.73 39.7132C40.02 43.2928 41.3625 60.6113 41.4975 63.8599C35.6682 66.1122 29.5077 67.3827 23.265 67.6199L29.205 61.2656C29.2899 61.1743 29.3508 61.0632 29.3823 60.9425C29.4137 60.8217 29.4146 60.6949 29.385 60.5737L25.35 44.0598L27.0975 41.7211ZM17.9325 39.3297C20.2826 38.9535 22.6774 38.9535 25.0275 39.3297L25.6575 41.1345L24.1575 43.1348H18.8025L17.3025 41.1345L17.9325 39.3297ZM16.2075 39.7132L15.7575 41.0142C15.7165 41.1305 15.7046 41.2551 15.7229 41.377C15.7412 41.499 15.7892 41.6146 15.8625 41.7136L17.61 44.0598L13.575 60.5136C13.5454 60.6348 13.5463 60.7615 13.5778 60.8823C13.6092 61.0031 13.6701 61.1141 13.755 61.2054L19.695 67.5598C13.4524 67.3225 7.29182 66.052 1.46252 63.7998C1.59752 60.6113 2.94002 43.3078 16.23 39.7132H16.2075Z" fill="white"/>
</svg>
