<svg width="78" height="79" viewBox="0 0 78 79" fill="none" xmlns="http://www.w3.org/2000/svg">
<path d="M23.9318 5.99878H8.71363C7.97727 5.99878 7.48636 6.48848 7.48636 7.22302V22.2812C7.48636 23.0157 7.97727 23.5054 8.71363 23.5054H23.8091C24.5455 23.5054 25.0364 23.0157 25.0364 22.2812V7.22302C25.1591 6.48848 24.5455 5.99878 23.9318 5.99878ZM22.7045 21.057H9.9409V8.44726H22.5818V21.057H22.7045Z" fill="white"/>
<path d="M23.9318 30.3612H8.71363C7.97727 30.3612 7.48636 30.8509 7.48636 31.5854V46.6436C7.48636 47.3782 7.97727 47.8679 8.71363 47.8679H23.8091C24.5455 47.8679 25.0364 47.3782 25.0364 46.6436V31.5854C25.1591 30.9733 24.5455 30.3612 23.9318 30.3612ZM22.7045 45.5418H9.9409V32.8097H22.5818V45.5418H22.7045Z" fill="white"/>
<path d="M23.9318 54.8461H8.71363C7.97727 54.8461 7.48636 55.3358 7.48636 56.0703V71.1285C7.48636 71.863 7.97727 72.3527 8.71363 72.3527H23.8091C24.5455 72.3527 25.0364 71.863 25.0364 71.1285V56.0703C25.1591 55.4582 24.5455 54.8461 23.9318 54.8461ZM22.7045 69.9042H9.9409V57.2946H22.5818V69.9042H22.7045Z" fill="white"/>
<path d="M13.6227 18.486C13.8682 18.7309 14.2364 18.8533 14.4818 18.8533C14.85 18.8533 15.0955 18.7309 15.3409 18.486L21.2318 12.6097C21.7227 12.12 21.7227 11.3854 21.2318 10.8957C20.7409 10.406 20.0046 10.406 19.5136 10.8957L14.4818 15.9151L13.1318 14.5684C12.6409 14.0787 11.9045 14.0787 11.4136 14.5684C10.9227 15.0581 10.9227 15.7927 11.4136 16.2824L13.6227 18.486Z" fill="white"/>
<path d="M13.6227 42.9709C13.8682 43.2157 14.1136 43.3382 14.4818 43.3382C14.85 43.3382 15.0955 43.2157 15.3409 42.9709L21.2318 37.0945C21.7227 36.6048 21.7227 35.8703 21.2318 35.3806C20.7409 34.8909 20.0046 34.8909 19.5136 35.3806L14.4818 40.4L13.1318 39.0533C12.6409 38.5636 11.9045 38.5636 11.4136 39.0533C10.9227 39.543 10.9227 40.2775 11.4136 40.7672L13.6227 42.9709Z" fill="white"/>
<path d="M13.6227 67.4557C13.8682 67.7006 14.2364 67.823 14.4818 67.823C14.85 67.823 15.0955 67.7006 15.3409 67.4557L21.2318 61.5794C21.7227 61.0897 21.7227 60.3551 21.2318 59.8654C20.7409 59.3757 20.0046 59.3757 19.5136 59.8654L14.4818 64.8848L13.1318 63.5382C12.6409 63.0485 11.9045 63.0485 11.4136 63.5382C10.9227 64.0279 10.9227 64.7624 11.4136 65.2521L13.6227 67.4557Z" fill="white"/>
<path d="M76.8273 43.9503H63.0818C62.3455 43.9503 61.8545 44.44 61.8545 45.1745C59.4 44.3176 60.2591 44.8073 59.0318 44.1952V19.2206C59.0318 18.8533 58.9091 18.6085 58.6636 18.3636L40.6227 0.367273C40.3773 0.122424 40.0091 0 39.7636 0H1.22727C0.490909 0 0 0.489697 0 1.22424V77.1273C0 77.8618 0.490909 78.3515 1.22727 78.3515H57.6818C58.4182 78.3515 58.9091 77.8618 58.9091 77.1273V70.0267H61.7318C61.8546 70.6388 62.3455 71.0061 62.9591 71.0061H76.7046C77.4409 71.0061 77.9318 70.5164 77.9318 69.7818V45.1745C78.0545 44.44 77.4409 43.9503 76.8273 43.9503ZM61.8545 47.623V67.5782H38.1682C36.45 67.5782 36.3273 66.2315 36.3273 65.8642C36.3273 65.3745 36.45 65.0073 36.6955 64.64C36.9409 64.2727 37.4318 64.1503 37.9227 64.1503C38.6591 64.1503 39.15 63.6606 39.15 62.9261C39.15 62.1915 38.6591 61.7018 37.9227 61.7018H36.2045C34.4864 61.7018 34.3636 60.3552 34.3636 59.9879C34.3636 59.3758 34.7318 58.2739 36.0818 58.2739C36.6955 58.2739 37.1864 57.7842 37.3091 57.1721C37.3091 56.56 36.9409 55.9479 36.3273 55.8255C36.0818 55.8255 35.8364 55.8255 35.4682 55.8255C33.5045 55.9479 32.7682 55.5806 32.5227 54.6012C32.4 54.1115 32.5227 53.4994 32.7682 53.1321C33.1364 52.7649 33.6273 52.52 34.1182 52.52C34.8545 52.52 35.3455 52.0303 35.3455 51.2958C35.3455 50.5612 34.8545 50.0715 34.1182 50.0715H32.2773C30.9273 50.0715 30.5591 48.9697 30.5591 48.3576C30.5591 48.1127 30.6818 46.6436 32.4 46.6436H40.9909C42.9545 46.6436 44.55 45.7867 45.2864 44.44C45.9 43.0933 46.1455 40.7673 43.3227 37.0945C42.3409 35.8703 41.9727 34.2788 42.4636 33.0545C43.0773 31.3406 44.7955 30.6061 45.9 30.4836C45.7773 39.4206 54.6136 44.6848 58.5409 46.5212C58.6636 46.7661 61.8545 47.623 61.8545 47.623ZM40.9909 4.16242L54.8591 17.9964H40.9909V4.16242ZM56.5773 75.903H2.57727V2.44848H38.5364V19.2206C38.5364 19.9552 39.0273 20.4448 39.7636 20.4448H56.5773V42.7261C52.8955 40.4 48.3546 36.2376 48.4773 30.4836C48.4773 29.8715 48.2318 29.137 47.7409 28.7697C47.25 28.28 46.5136 28.1576 45.9 28.1576C43.0773 28.5248 41.1136 30.1164 40.2545 32.32C39.5182 34.4012 40.0091 36.7273 41.4818 38.6861C43.0773 40.6448 43.6909 42.4812 43.2 43.3382C42.8318 44.0727 41.6046 44.1952 41.1136 44.1952H32.5227C29.7 44.1952 28.2273 46.2764 28.2273 48.3576C28.2273 49.8267 29.0864 51.4182 30.5591 52.1527C30.0682 53.1321 29.9455 54.1115 30.1909 55.2133C30.5591 56.6824 31.5409 57.5394 32.5227 57.9067C32.1545 58.5188 32.0318 59.2533 32.0318 59.9879C32.0318 61.457 32.8909 63.0485 34.3636 63.783C33.9955 64.3952 33.8727 65.1297 33.8727 65.8642C33.8727 67.9455 35.3455 70.0267 38.1682 70.0267H56.5773V75.903V75.903ZM75.6 68.68H64.3091V46.7661V46.3988H75.6V68.68Z" fill="white"/>
</svg>
