<svg width="83" height="83" viewBox="0 0 83 83" fill="none" xmlns="http://www.w3.org/2000/svg">
<path d="M42.5 13.5649V10.7H39.8438V13.375H35.8594V18.725C35.8594 21.6755 38.242 24.075 41.1719 24.075C42.6368 24.075 43.8281 25.2748 43.8281 26.75V29.425H41.1719C39.707 29.425 38.5156 28.2253 38.5156 26.75V25.4125H35.8594V26.75C35.8594 29.2364 37.558 31.3122 39.8438 31.9101V34.775H42.5V32.1H46.4844V26.75C46.4844 23.7995 44.1017 21.4 41.1719 21.4C39.707 21.4 38.5156 20.2003 38.5156 18.725V16.05H41.1719C42.6368 16.05 43.8281 17.2498 43.8281 18.725V20.0625H46.4844V18.725C46.4844 16.2386 44.7857 14.1628 42.5 13.5649Z" fill="white"/>
<path d="M70.3906 72.225V53.5H75.3937L65.8312 37.45H58.3498C61.7963 33.3639 63.75 28.1651 63.75 22.7375C63.75 10.1998 53.6217 0 41.1719 0C28.722 0 18.5938 10.1998 18.5938 22.7375C18.5938 28.1637 20.5474 33.3639 23.9966 37.45H16.5139L6.95141 53.5H11.9531V72.225C8.29148 72.225 5.3125 75.225 5.3125 78.9125V82.925H77.0312V78.9125C77.0312 75.225 74.0523 72.225 70.3906 72.225ZM67.7344 72.225H54.4531V55.0849L58.9568 58.5731L60.5758 56.4519L56.7641 53.5H67.7344V72.225ZM43.8281 72.225H38.5156V64.2H43.8281V72.225ZM35.8594 61.525V72.225H30.5469V53.0265L39.598 46.014C40.4985 45.3185 41.8452 45.3199 42.743 46.0127L51.7969 53.0265V72.225H46.4844V61.525H35.8594ZM21.25 22.7375C21.25 11.675 30.187 2.675 41.1719 2.675C52.1568 2.675 61.0938 11.675 61.0938 22.7375C61.0938 28.3309 58.7549 33.6582 54.6855 37.45H50.3306C55.1902 34.3697 58.4375 28.9341 58.4375 22.7375C58.4375 13.1503 50.6919 5.35 41.1719 5.35C31.6519 5.35 23.9062 13.1503 23.9062 22.7375C23.9062 28.9341 27.1535 34.3697 32.0131 37.45H27.6569C23.5888 33.6569 21.25 28.3309 21.25 22.7375ZM41.1719 37.45C33.1168 37.45 26.5625 30.8494 26.5625 22.7375C26.5625 14.6256 33.1168 8.025 41.1719 8.025C49.227 8.025 55.7812 14.6256 55.7812 22.7375C55.7812 30.8494 49.227 37.45 41.1719 37.45ZM18.0173 40.125H64.3251L70.7001 50.825H53.3123L44.362 43.8901C42.5385 42.4844 39.8079 42.483 37.9817 43.8914L29.0315 50.825H11.6437L18.0173 40.125ZM14.6094 53.5H25.5797L21.7693 56.4519L23.3883 58.5731L27.8906 55.0849V72.225H14.6094V53.5ZM74.375 80.25H7.96875V78.9125C7.96875 76.7003 9.75641 74.9 11.9531 74.9H70.3906C72.5873 74.9 74.375 76.7003 74.375 78.9125V80.25Z" fill="white"/>
<path d="M41.1719 48.15C38.9752 48.15 37.1875 49.9503 37.1875 52.1625C37.1875 54.3748 38.9752 56.175 41.1719 56.175C43.3686 56.175 45.1562 54.3748 45.1562 52.1625C45.1562 49.9503 43.3686 48.15 41.1719 48.15ZM41.1719 53.5C40.4388 53.5 39.8438 52.9008 39.8438 52.1625C39.8438 51.4242 40.4388 50.825 41.1719 50.825C41.905 50.825 42.5 51.4242 42.5 52.1625C42.5 52.9008 41.905 53.5 41.1719 53.5Z" fill="white"/>
<path d="M57.1094 69.55H65.0781V61.525H57.1094V69.55ZM59.7656 64.2H62.4219V66.875H59.7656V64.2Z" fill="white"/>
<path d="M17.2656 61.525V69.55H25.2344V61.525H17.2656ZM22.5781 66.875H19.9219V64.2H22.5781V66.875Z" fill="white"/>
<path d="M69.0625 0H66.4062V2.675H69.0625V0Z" fill="white"/>
<path d="M69.0625 5.34998H66.4062V8.02498H69.0625V5.34998Z" fill="white"/>
<path d="M71.7188 2.67499H69.0625V5.34999H71.7188V2.67499Z" fill="white"/>
<path d="M66.4062 2.67499H63.75V5.34999H66.4062V2.67499Z" fill="white"/>
<path d="M79.6875 13.375H77.0312V16.05H79.6875V13.375Z" fill="white"/>
<path d="M79.6875 18.725H77.0312V21.4H79.6875V18.725Z" fill="white"/>
<path d="M82.3438 16.05H79.6875V18.725H82.3438V16.05Z" fill="white"/>
<path d="M77.0312 16.05H74.375V18.725H77.0312V16.05Z" fill="white"/>
<path d="M71.7188 26.75H69.0625V29.425H71.7188V26.75Z" fill="white"/>
<path d="M71.7188 32.1H69.0625V34.775H71.7188V32.1Z" fill="white"/>
<path d="M74.375 29.425H71.7188V32.1H74.375V29.425Z" fill="white"/>
<path d="M69.0625 29.425H66.4062V32.1H69.0625V29.425Z" fill="white"/>
<path d="M15.9375 0H13.2812V2.675H15.9375V0Z" fill="white"/>
<path d="M15.9375 5.34998H13.2812V8.02498H15.9375V5.34998Z" fill="white"/>
<path d="M13.2812 2.67499H10.625V5.34999H13.2812V2.67499Z" fill="white"/>
<path d="M18.5938 2.67499H15.9375V5.34999H18.5938V2.67499Z" fill="white"/>
<path d="M5.3125 13.375H2.65625V16.05H5.3125V13.375Z" fill="white"/>
<path d="M5.3125 18.725H2.65625V21.4H5.3125V18.725Z" fill="white"/>
<path d="M2.65625 16.05H0V18.725H2.65625V16.05Z" fill="white"/>
<path d="M7.96875 16.05H5.3125V18.725H7.96875V16.05Z" fill="white"/>
<path d="M13.2812 26.75H10.625V29.425H13.2812V26.75Z" fill="white"/>
<path d="M13.2812 32.1H10.625V34.775H13.2812V32.1Z" fill="white"/>
<path d="M10.625 29.425H7.96875V32.1H10.625V29.425Z" fill="white"/>
<path d="M15.9375 29.425H13.2812V32.1H15.9375V29.425Z" fill="white"/>
</svg>
